<svg id="Layer_1" data-name="Layer 1" xmlns="http://www.w3.org/2000/svg" xmlns:xlink="http://www.w3.org/1999/xlink" viewBox="0 0 514.08 400.99"><defs><linearGradient id="linear-gradient" x1="236.64" y1="490.53" x2="310.02" y2="24.57" gradientUnits="userSpaceOnUse"><stop offset="0.01"/><stop offset="0.13" stop-opacity="0.69"/><stop offset="1" stop-opacity="0"/></linearGradient><linearGradient id="linear-gradient-2" x1="123.4" y1="117.31" x2="117.46" y2="34.12" gradientUnits="userSpaceOnUse"><stop offset="0.02" stop-color="#fff" stop-opacity="0"/><stop offset="0.58" stop-color="#fff" stop-opacity="0.39"/><stop offset="0.68" stop-color="#fff" stop-opacity="0.68"/><stop offset="1" stop-color="#fff"/></linearGradient><linearGradient id="linear-gradient-3" x1="187.98" y1="185.78" x2="125.38" y2="225.68" xlink:href="#linear-gradient-2"/><linearGradient id="linear-gradient-4" x1="240.71" y1="301.07" x2="211.66" y2="266.52" xlink:href="#linear-gradient"/><linearGradient id="linear-gradient-5" x1="325.78" y1="343.2" x2="389.07" y2="328.53" xlink:href="#linear-gradient"/><linearGradient id="linear-gradient-6" x1="294.54" y1="372.27" x2="364.86" y2="330.39" xlink:href="#linear-gradient"/><linearGradient id="linear-gradient-7" x1="162.27" y1="157.64" x2="205.05" y2="81.9" xlink:href="#linear-gradient-2"/><linearGradient id="linear-gradient-8" x1="158.14" y1="171.02" x2="191.76" y2="111.51" xlink:href="#linear-gradient-2"/><linearGradient id="linear-gradient-9" x1="335.84" y1="295.91" x2="378.62" y2="220.17" gradientTransform="matrix(-0.99, -0.1, -0.1, 0.99, 757.03, 31.06)" xlink:href="#linear-gradient-2"/><linearGradient id="linear-gradient-10" x1="433.24" y1="352.53" x2="425.68" y2="246.59" xlink:href="#linear-gradient-2"/><linearGradient id="linear-gradient-11" x1="594.26" y1="383.12" x2="637.04" y2="307.38" gradientTransform="translate(-487.35 -77.12) rotate(4.72)" xlink:href="#linear-gradient-2"/><linearGradient id="linear-gradient-12" x1="590.13" y1="396.49" x2="623.75" y2="336.98" gradientTransform="translate(-487.35 -77.12) rotate(4.72)" xlink:href="#linear-gradient-2"/><linearGradient id="linear-gradient-13" x1="247.94" y1="270.88" x2="281.87" y2="352.21" xlink:href="#linear-gradient"/></defs><title>Dream 1</title><path d="M215.43,64.19c-37.33,2.64-75.3,16.18-100.22,44.09C96,129.81,85.91,158,68.42,181c-18,23.59-43.81,41.75-55.46,69C6,266.24,4.8,284.32,4.81,302c0,25.59,2.53,51.82,13.52,74.94,5.13,10.82,12.31,21,22.41,27.47,9.44,6,20.74,8.34,31.84,9.88,49.19,6.81,99.92.42,148.33,11.47,25.22,5.75,49.12,16.09,73.87,23.59a339.47,339.47,0,0,0,124.81,13.54c16.45-1.29,33.12-3.88,47.89-11.23,35.44-17.62,53.2-60.53,50.15-100S494.26,276,469.94,244.8c-15.57-20-33.12-38.8-44.34-61.5-7.94-16.06-12.5-33.68-21.09-49.39C370.88,72.42,278.4,59.74,215.43,64.19Z" transform="translate(-4.81 -63.39)" fill="#68e1fd"/><path d="M468.4,452.11c-14.77,7.34-31.44,9.93-47.89,11.23A339.5,339.5,0,0,1,295.69,449.8C271,442.3,247.05,432,221.83,426.2c-48.42-11-99.15-4.65-148.34-11.46-11.09-1.54-22.39-3.86-31.83-9.89-10.1-6.43-17.28-16.64-22.42-27.46-11-23.12-13.51-49.34-13.52-74.94,0-17.68,1.22-35.76,8.16-52,11.64-27.27,37.48-45.44,55.45-69,17.49-22.95,27.57-51.16,46.8-72.68C141.05,80.83,179,67.29,216.34,64.65c63-4.45,155.46,8.23,189.08,69.72,8.6,15.71,13.16,33.33,21.09,49.38,11.24,22.71,28.78,41.53,44.34,61.51,13,16.65,24.83,34.73,33.51,53.95a174.83,174.83,0,0,1,10.14,28.61,142.74,142.74,0,0,1,4,24.29C521.59,391.58,503.84,434.49,468.4,452.11Z" transform="translate(-4.81 -63.39)" opacity="0.58" fill="url(#linear-gradient)"/><path d="M259.72,277.22q-11,3-22,5.5c-2.6.59-5.28,1.15-7.89.64a18.82,18.82,0,0,1-5.34-2.24,229.7,229.7,0,0,1-48.76-35.94,38.2,38.2,0,0,0-4.94-13,6.79,6.79,0,0,0-.42,6.56c-2.18-.38-3.78-2.18-5.34-3.75a38.21,38.21,0,0,0-11.22-7.82,1.52,1.52,0,0,0-.87,1.83,4.58,4.58,0,0,0,1.21,1.85l3.72,4L147,230.67a9.67,9.67,0,0,0-3.32-.84,3.25,3.25,0,0,0-2.91,1.5l12.55,8.61-12.13-2.79c-1,1.07.41,2.66,1.66,3.41l7.3,4.37c-1.53.26-3-.55-4.55-.76s-3.52.8-3.21,2.32,2.2,1.68,3.65,1.94c5.32,1,9.37,6.55,14.75,6.14a15.28,15.28,0,0,1,3.42-.27,7.27,7.27,0,0,1,3.36,1.92c13.09,11.06,26.15,22.17,39.29,33.18,16.61,13.94,28.39,12.08,36.59,11.93s16.34-1.59,24.42-3a5.38,5.38,0,0,0,2.26-.77c2-1.46,1-4.56-.17-6.71C267.24,285.91,263.07,281.75,259.72,277.22Z" transform="translate(-4.81 -63.39)" fill="#fadea5"/><polygon points="119.58 34.95 119.58 117.58 121.44 117.41 121.28 33.84 119.58 34.95" fill="url(#linear-gradient-2)"/><path d="M131,166.37s-30.27,21.09-24.76,54.57c4.57,27.79,19.87,37.92,63.75,32.11,0,0-30.95-8.43-41.74-36.23C123.3,204.18,123.21,189.59,131,166.37Z" transform="translate(-4.81 -63.39)" fill="url(#linear-gradient-3)"/><path d="M357.86,366.55a27,27,0,0,0,13.54.41,80,80,0,0,0,13-4.18L405,354.86c4.09-1.57,8.74-2.38,13-3.35,1.93-.43,4-.85,5.81,0,1.5.71,2.48,2.16,3.76,3.2a8.13,8.13,0,0,0,4.49,1.78,2.87,2.87,0,0,0,1.85-.35c1.38-.94.79-3.07.05-4.56l-6.32-12.77c-.74-1.5-1.71-3.18-3.36-3.45a5.66,5.66,0,0,0-3.29.92c-7.68,3.85-16.24,5.55-24.68,7.17-10.89,2.09-21.89,4.13-33,3.72a5.69,5.69,0,0,0-2.14.18,4.42,4.42,0,0,0-1.25.75,11.2,11.2,0,0,0-3.59,5.11c-.95,2.77-.76,5.78-.57,8.71a9.36,9.36,0,0,0,.77,3.78C357.19,366.83,356.58,366.72,357.86,366.55Z" transform="translate(-4.81 -63.39)" fill="#fadea5"/><path d="M332.05,390a26.9,26.9,0,0,0,11.38,7.34,79.64,79.64,0,0,0,13.32,3.15l21.71,3.86c4.32.76,8.72,2.47,12.88,3.85,1.88.62,3.89,1.35,5,3,.92,1.37,1,3.12,1.56,4.67a8.11,8.11,0,0,0,2.93,3.85,2.85,2.85,0,0,0,1.76.65c1.67-.09,2.26-2.22,2.4-3.88l1.19-14.2c.14-1.66.17-3.6-1.1-4.68a5.64,5.64,0,0,0-3.29-.92c-8.57-.67-16.78-3.63-24.84-6.61-10.4-3.83-20.87-7.76-30.14-13.83a5.7,5.7,0,0,0-1.93-.95,4.21,4.21,0,0,0-1.46,0,11.19,11.19,0,0,0-5.71,2.51c-2.24,1.89-3.64,4.56-5,7.17a9.65,9.65,0,0,0-1.29,3.63C331.33,389.92,330.86,389.52,332.05,390Z" transform="translate(-4.81 -63.39)" fill="#fadea5"/><path d="M241.81,295.14q-11,3-22,5.5c-2.59.58-5.28,1.15-7.89.63a18.62,18.62,0,0,1-5.34-2.23,230,230,0,0,1-48.76-35.94,38,38,0,0,0-4.94-13,6.74,6.74,0,0,0-.41,6.55c-2.18-.37-3.78-2.18-5.34-3.75a38.58,38.58,0,0,0-11.23-7.82,1.51,1.51,0,0,0-.86,1.83,4.26,4.26,0,0,0,1.21,1.85l3.71,4-10.82-4.16a9.78,9.78,0,0,0-3.33-.84,3.27,3.27,0,0,0-2.91,1.5l12.55,8.61-12.13-2.8c-1,1.07.41,2.67,1.67,3.42l7.29,4.37c-1.52.26-3-.56-4.54-.76s-3.53.8-3.22,2.31,2.2,1.68,3.66,2c5.31,1,9.36,6.55,14.75,6.14a14.58,14.58,0,0,1,3.41-.27,7.27,7.27,0,0,1,3.36,1.92c13.1,11.06,26.16,22.17,39.29,33.18,16.61,13.93,28.39,12.08,36.6,11.93s16.33-1.59,24.42-3a5.16,5.16,0,0,0,2.25-.77c2-1.46,1-4.55-.17-6.7C249.32,303.83,245.15,299.66,241.81,295.14Z" transform="translate(-4.81 -63.39)" fill="#fadea5"/><path d="M223.7,278.56a2.26,2.26,0,0,0-1.82-.38,2.15,2.15,0,0,0-.7.58,34.25,34.25,0,0,0-7.11,12.51c-.46,1.47-.8,3.14,0,4.49a5.73,5.73,0,0,0,1.27,1.42,25.52,25.52,0,0,0,18.8,6.08,11.48,11.48,0,0,0,3.48-.77,10.82,10.82,0,0,0,3.2-2.3A19.2,19.2,0,0,0,246,283c-.32-1.59-1-4.67-2.86-4.62-.84,0-2.15,1-3,1.26a21.47,21.47,0,0,1-16.45-1.11Z" transform="translate(-4.81 -63.39)" fill="#68e1fd"/><path d="M223.7,278.56a2.26,2.26,0,0,0-1.82-.38,2.15,2.15,0,0,0-.7.58,34.25,34.25,0,0,0-7.11,12.51c-.46,1.47-.8,3.14,0,4.49a5.73,5.73,0,0,0,1.27,1.42,25.52,25.52,0,0,0,18.8,6.08,11.48,11.48,0,0,0,3.48-.77,10.82,10.82,0,0,0,3.2-2.3A19.2,19.2,0,0,0,246,283c-.32-1.59-1-4.67-2.86-4.62-.84,0-2.15,1-3,1.26a21.47,21.47,0,0,1-16.45-1.11Z" transform="translate(-4.81 -63.39)" opacity="0.58" fill="url(#linear-gradient-4)"/><path d="M215.92,253.37c-.39,3.78-.54,7.48-.64,10.68-.07,2.41,0,4.95,1.22,7a11.9,11.9,0,0,0,5.17,4.15c4.88,2.43,10.33,4,15.77,3.5a22.16,22.16,0,0,0,15.82-9.45c3.64-5.25,7.29-11,8.11-17.43a28,28,0,0,0-3.79-18.32,22.65,22.65,0,0,0-15.33-10.39c-8.11-1.26-16.41,4.89-20.79,11.38C218.11,239.47,216.62,246.56,215.92,253.37Z" transform="translate(-4.81 -63.39)" fill="#fadea5"/><path d="M238.11,278.32a48.09,48.09,0,0,0,1.65,9.71,4.89,4.89,0,0,0,1.28,2.3c1.47,1.29,3.71.69,5.67.62a7.68,7.68,0,0,0,2.45-.24,5.41,5.41,0,0,0,1.82-1.34,13.84,13.84,0,0,0,3.53-4.64,12.43,12.43,0,0,0,.66-3.38,67.48,67.48,0,0,0-.53-16.25c-.14-.91-.41-2-1.25-2.32a2.37,2.37,0,0,0-1.42-.07,19.08,19.08,0,0,0-5.36,2.25q-2.4,1.28-4.89,2.35c-1.14.5-3.1.86-3.94,1.85s-.34,2.55-.23,3.67C237.74,274.66,237.92,276.49,238.11,278.32Z" transform="translate(-4.81 -63.39)" fill="#fadea5"/><path d="M224.83,218.75a16.37,16.37,0,0,0-4.75,3.42,15.12,15.12,0,0,0-3.73,4.45,5.12,5.12,0,0,0,.46,5.51c.94,1,2.56,1.58,3.72,2.36a7.34,7.34,0,0,0,5.25,1.19,1.74,1.74,0,0,1,1,0,1.84,1.84,0,0,1,.63.61,4.55,4.55,0,0,0,2.63,1.57,1.86,1.86,0,0,1,1.16.46,1.77,1.77,0,0,1,.25,1c.28,3.25,2.74,5.87,3.75,9a20.93,20.93,0,0,1,.75,5.3l.19,3.47c0-.7,2.94-3.5,3.6-3.92,2.59,1.54,2.47,6-.2,7.44a10.52,10.52,0,0,0,8.34,9.19,20.75,20.75,0,0,0,4.66.13l4-.2a1.54,1.54,0,0,0,1.7-1.35c1.37-3.89,4-7,5.19-11s1.14-7.87,1.14-12c-.56-7.43-3.05-14.92-8.16-20.33a18.34,18.34,0,0,0-4.65-3.67c-2.83-1.52-6.06-2.07-9.23-2.59a66.94,66.94,0,0,0-9-.85C230.71,217.85,227.48,217.69,224.83,218.75Z" transform="translate(-4.81 -63.39)" fill="#755a3f"/><path d="M318.65,323.39c-.89,2.9-1.89,5.87-3.07,8.79l-.06.14q-.39,1-.81,1.92a.05.05,0,0,0,0,0c-.27.59-.54,1.19-.82,1.78a2,2,0,0,1-.1.21c-.14.3-.3.6-.45.89l-.48.95c-.33.62-.67,1.24-1,1.85-.24.43-.5.84-.77,1.26,0,0,0,0,0,.06a34.22,34.22,0,0,1-8,9.06l0,0c-.52.4-1.06.79-1.62,1.16a9.44,9.44,0,0,1-4.8,1.86,9.84,9.84,0,0,1-3.8-.83,90.54,90.54,0,0,1-9.93-4.52c-1.32-1.3-2.66-2.59-4-3.86-1.74-1.66-3.5-3.3-5.36-4.82-6.53-5.29-14.22-8.88-21.83-12.43L243.22,323c-1.74-.81-3.53-2-5.42-2.41a1,1,0,0,0-.23-.12,4.49,4.49,0,0,0-2.06,0c-5,.87-9.28,2.29-14.37,2.65a4.61,4.61,0,0,1-2.22-.22c-.74-.32-2.06-4.25-2.52-4.91a30,30,0,0,1-5.21-14.93,3.67,3.67,0,0,1,.2-1.81,3.94,3.94,0,0,1,2-1.59c8.78-4.32,17.51-9.13,24.37-16.11l.77-.77c.43-.43.87-.87,1.35-1.32l.87-.83c.79-.76,1.62-1.53,2.43-2.3l1-.9.54-.5h0a22.64,22.64,0,0,1,6.12-4.1c.63-.29,1.28-.55,1.94-.79.33-.11.65-.22,1-.31a19.85,19.85,0,0,1,2-.5,21.21,21.21,0,0,1,4.14-.41l.74,0,.56,0,.43,0a4.38,4.38,0,0,1,.5,0c.22,0,.43.05.65.09h.15l.68.12c.5.09,1,.19,1.48.32l.43.12.3.09.29.09c.28.08.57.18.86.28,4.38,1.56,8.17,4.41,11.89,7.22l22.77,17.2,13.47,10.19a12.89,12.89,0,0,1,2.62,2.38,10.26,10.26,0,0,1,1.69,4.58A21.72,21.72,0,0,1,318.65,323.39Z" transform="translate(-4.81 -63.39)" fill="#68e1fd"/><path d="M300.89,352.43l-.39.08a4.26,4.26,0,0,1,1.22-.9,1.87,1.87,0,0,1,1.45-.05C303.67,351.75,302.44,352.1,300.89,352.43Z" transform="translate(-4.81 -63.39)" fill="#68e1fd"/><path d="M318.65,323.39c-.89,2.9-1.89,5.87-3.07,8.79-.56,1.38-1.16,2.74-1.81,4.09-.14.3-.3.6-.45.89l-.48.95c-.33.62-.67,1.24-1,1.85q-.39.68-.81,1.32a34.37,34.37,0,0,1-8,9.08c-.52.4-1.06.79-1.62,1.16a13.66,13.66,0,0,1-2.37,1.3c.48-.09,1-.19,1.47-.31a13.81,13.81,0,0,0-1.36,1.71h0c-1.79,2.56-3.49,5.81-5.51,4.73l-.3-.16s0-.05.08-.07q-7.08-7.46-14.53-14.56c-1.74-1.66-3.5-3.3-5.36-4.82-6.53-5.29-14.22-8.88-21.83-12.43L243.22,323c-1.74-.81-3.53-2-5.42-2.41a1,1,0,0,0-.23-.12,4.49,4.49,0,0,0-2.06,0c-5,.87-9.28,2.29-14.37,2.65a4.61,4.61,0,0,1-2.22-.22c-.74-.32-2.06-4.25-2.52-4.91a30,30,0,0,1-5.21-14.93,3.67,3.67,0,0,1,.2-1.81,3.94,3.94,0,0,1,2-1.59c8.78-4.32,17.51-9.13,24.37-16.11l.77-.77c.43-.43.87-.87,1.35-1.32l.87-.83c.79-.76,1.62-1.53,2.43-2.3l1-.9.54-.5h0l.38-.36a21,21,0,0,1,18.44-5.45c.53.1,1,.22,1.58.36l.43.12.59.18c.28.08.57.18.86.28,4.38,1.56,8.17,4.41,11.89,7.22l22.77,17.2,13.47,10.19a12.89,12.89,0,0,1,2.62,2.38,10.26,10.26,0,0,1,1.69,4.58A21.72,21.72,0,0,1,318.65,323.39Z" transform="translate(-4.81 -63.39)" fill="#68e1fd"/><path d="M293.32,358.8s0-.05.08-.07l.22.23c.26.15-.38.35-.37,0A.35.35,0,0,1,293.32,358.8Z" transform="translate(-4.81 -63.39)" fill="#fff"/><path d="M319.38,313.65a21.72,21.72,0,0,1-.73,9.74c0,2.62-2.09,6.37-3.07,8.78l-.06.14c-.26.65-.53,1.29-.81,1.93a.05.05,0,0,0,0,0l-.82,1.78a1.86,1.86,0,0,1-.1.2c-.14.3-.3.61-.45.9l-.48.94c-.33.63-.67,1.25-1,1.86l-.55.92a1.72,1.72,0,0,1-.22.33.1.1,0,0,1,0,.07,26.68,26.68,0,0,1-1.77,2.5,66.29,66.29,0,0,1-6.19,6.56h0l-1.3,1.26-.83.82c-.6.59-1.17,1.18-1.75,1.78,0,0,0,0,0,0-.32.33-.63.68-.94,1-1.21,1.36-2.52,2.77-4.27,3.25a1.29,1.29,0,0,0-.52.23q-5.17-5.46-10.54-10.71c-1.31-1.29-2.65-2.58-4-3.85-1.74-1.66-3.5-3.31-5.36-4.82-6.53-5.29-14.22-8.89-21.83-12.43L243.22,323c-1.74-.81-3.53-2-5.42-2.41a5.68,5.68,0,0,0-2.29-.08c-5,.87-9.28,2.29-14.37,2.64a4.49,4.49,0,0,1-2.22-.21c-.74-.32-2.06-4.25-2.52-4.91a30,30,0,0,1-5.21-14.94,3.64,3.64,0,0,1,.2-1.8,3.94,3.94,0,0,1,2-1.59c8.78-4.32,17.51-9.13,24.37-16.11l.76-.77,1.36-1.33.87-.83,2.43-2.29,1-.9.54-.5h0a22.91,22.91,0,0,1,6.12-4.11c.63-.29,1.28-.55,1.93-.78l1-.32c.67-.19,1.33-.36,2-.49a21.21,21.21,0,0,1,4.14-.41l.74,0,.56,0,.43,0,.5,0,.65.08.15,0,.68.11c.5.09,1,.2,1.48.33l.43.11.3.09.29.09.85.29c4.39,1.55,8.18,4.4,11.9,7.21l22.77,17.2q6.72,5.1,13.47,10.19c.94.71,6.19,3.88,6.9,4.82C323,312.82,319.12,312,319.38,313.65Z" transform="translate(-4.81 -63.39)" fill="#68e1fd"/><path d="M345.16,329c2.25,2.89,4.29,6.07,7.35,8.09A102.39,102.39,0,0,0,363,343.46c1.5.75-3.08,20.17-4.32,23.33a3.57,3.57,0,0,1-1.14,1.77,3.48,3.48,0,0,1-2.26.35,86,86,0,0,1-45.06-16.85c-2-1.53-4.19-3.5-4.23-6.06a9,9,0,0,1,1.24-4l5.68-11.42c2.22-4.48,4.44-9.11,5.29-14.08.91-5.29,1.76-6.19,7-3.66A56.53,56.53,0,0,1,345.16,329Z" transform="translate(-4.81 -63.39)" fill="#68e1fd"/><path d="M345.16,329c2.25,2.89,4.29,6.07,7.35,8.09A102.39,102.39,0,0,0,363,343.46c1.5.75-3.08,20.17-4.32,23.33a3.57,3.57,0,0,1-1.14,1.77,3.48,3.48,0,0,1-2.26.35,86,86,0,0,1-45.06-16.85c-2-1.53-4.19-3.5-4.23-6.06a9,9,0,0,1,1.24-4l5.68-11.42c2.22-4.48,4.44-9.11,5.29-14.08.91-5.29,1.76-6.19,7-3.66A56.53,56.53,0,0,1,345.16,329Z" transform="translate(-4.81 -63.39)" opacity="0.58" fill="url(#linear-gradient-5)"/><path d="M324.76,387.94c1.47,1.44,3.08,2.92,5.09,3.34a10.38,10.38,0,0,0,5.72-.93,75.92,75.92,0,0,0,12.69-6.18,6.76,6.76,0,0,0,3.16-3.13,6.32,6.32,0,0,0-.21-3.93c-1.57-5.36-4.52-10.26-5.83-15.69-1.07-4.47-1-9.17-2.1-13.63a41.3,41.3,0,0,0-6-12.59A106.56,106.56,0,0,0,318.73,314a71.47,71.47,0,0,1-16.14,30.72c-4.41,4.79-7.58,7.21-3.35,13,3.7,5.06,7.37,10.12,11.39,14.94Q317.3,380.62,324.76,387.94Z" transform="translate(-4.81 -63.39)" fill="#68e1fd"/><path d="M324.76,387.94c1.47,1.44,3.08,2.92,5.09,3.34a10.38,10.38,0,0,0,5.72-.93,75.92,75.92,0,0,0,12.69-6.18,6.76,6.76,0,0,0,3.16-3.13,6.32,6.32,0,0,0-.21-3.93c-1.57-5.36-4.52-10.26-5.83-15.69-1.07-4.47-1-9.17-2.1-13.63a41.3,41.3,0,0,0-6-12.59A106.56,106.56,0,0,0,318.73,314a71.47,71.47,0,0,1-16.14,30.72c-4.41,4.79-7.58,7.21-3.35,13,3.7,5.06,7.37,10.12,11.39,14.94Q317.3,380.62,324.76,387.94Z" transform="translate(-4.81 -63.39)" opacity="0.58" fill="url(#linear-gradient-6)"/><path d="M153.5,182.94" transform="translate(-4.81 -63.39)" fill="#68e1fd"/><polygon points="245.54 18.67 243.56 24.33 234.08 26.77 240.96 30.29 237.29 41.45 246.31 34.11 254.56 40.08 250.74 29.98 256.7 23.56 247.84 24.02 245.54 18.67" fill="#fff"/><polygon points="307.14 65.53 306.24 68.1 301.95 69.2 305.07 70.8 303.41 75.85 307.49 72.53 311.23 75.22 309.5 70.66 312.19 67.75 308.18 67.96 307.14 65.53" fill="#fff"/><polygon points="291.18 20.81 289.19 26.47 279.71 28.91 286.59 32.43 282.92 43.59 291.94 36.25 300.19 42.22 296.37 32.13 302.33 25.7 293.47 26.16 291.18 20.81" fill="#fff"/><polygon points="163.08 72.18 161.92 75.48 156.38 76.91 160.4 78.97 158.26 85.48 163.53 81.2 168.35 84.68 166.11 78.79 169.59 75.04 164.42 75.31 163.08 72.18" fill="#fff"/><polygon points="352.78 67.68 351.88 70.24 347.58 71.34 350.7 72.94 349.04 77.99 353.12 74.67 356.86 77.36 355.13 72.8 357.83 69.89 353.81 70.1 352.78 67.68" fill="#fff"/><polygon points="175.69 130.51 174.79 133.07 170.5 134.18 173.62 135.77 171.95 140.83 176.04 137.5 179.78 140.2 178.04 135.63 180.74 132.73 176.73 132.94 175.69 130.51" fill="#fff"/><polygon points="286.38 67.82 285.48 70.38 281.19 71.49 284.3 73.08 282.64 78.13 286.72 74.81 290.46 77.51 288.73 72.94 291.43 70.04 287.41 70.24 286.38 67.82" fill="#fff"/><polygon points="422.17 153.93 418.58 155.69 412.93 152.42 414.56 157.31 407.59 160.89 415.31 161.63 416.44 168.32 419.35 161.74 425.19 161.48 420.76 157.55 422.17 153.93" fill="#fff"/><polygon points="337.27 118.41 335.17 119.43 331.88 117.52 332.82 120.38 328.76 122.47 333.26 122.9 333.93 126.81 335.62 122.96 339.03 122.81 336.44 120.52 337.27 118.41" fill="#fff"/><polygon points="429.51 205.02 427.89 205.82 425.33 204.34 426.07 206.55 422.92 208.17 426.41 208.51 426.92 211.54 428.24 208.56 430.88 208.44 428.88 206.66 429.51 205.02" fill="#fff"/><polygon points="315.97 152.02 314.34 152.82 311.79 151.34 312.52 153.55 309.37 155.17 312.86 155.51 313.38 158.54 314.69 155.56 317.33 155.44 315.33 153.66 315.97 152.02" fill="#fff"/><polygon points="397.9 174.02 396.27 174.82 393.71 173.34 394.45 175.55 391.3 177.17 394.79 177.51 395.3 180.54 396.62 177.56 399.26 177.44 397.26 175.66 397.9 174.02" fill="#fff"/><polygon points="60.99 145.94 61.53 149.9 56.66 154.24 61.81 154.23 63.05 161.97 66.15 154.86 72.87 155.88 67.52 151.06 69.1 145.43 63.98 148.41 60.99 145.94" fill="#fff"/><polygon points="29.15 203.9 29.47 206.21 26.62 208.75 29.63 208.74 30.35 213.26 32.16 209.11 36.08 209.7 32.96 206.89 33.88 203.61 30.89 205.34 29.15 203.9" fill="#fff"/><polygon points="125.93 126.29 126.17 128.08 123.97 130.05 126.3 130.04 126.86 133.54 128.26 130.33 131.31 130.79 128.88 128.61 129.6 126.06 127.28 127.41 125.93 126.29" fill="#fff"/><polygon points="54.43 234.64 54.68 236.43 52.47 238.4 54.8 238.39 55.36 241.89 56.77 238.68 59.81 239.13 57.39 236.96 58.1 234.41 55.78 235.76 54.43 234.64" fill="#fff"/><polygon points="80.95 175 81.19 176.79 78.99 178.76 81.32 178.75 81.88 182.25 83.28 179.04 86.32 179.5 83.9 177.31 84.62 174.77 82.3 176.12 80.95 175" fill="#fff"/><polygon points="83.79 273.82 84.15 276.42 80.96 279.27 84.33 279.26 85.14 284.33 87.18 279.67 91.58 280.34 88.08 277.18 89.11 273.49 85.75 275.45 83.79 273.82" fill="#fff"/><polygon points="62.92 311.82 63.13 313.33 61.27 315 63.24 314.99 63.71 317.95 64.9 315.23 67.47 315.62 65.42 313.78 66.03 311.62 64.07 312.76 62.92 311.82" fill="#fff"/><polygon points="120.6 262.4 120.76 263.57 119.31 264.86 120.84 264.86 121.21 267.15 122.13 265.04 124.12 265.35 122.54 263.92 123 262.25 121.48 263.13 120.6 262.4" fill="#fff"/><polygon points="79.49 331.96 79.66 333.14 78.21 334.43 79.74 334.42 80.11 336.72 81.03 334.61 83.02 334.91 81.43 333.48 81.9 331.81 80.38 332.7 79.49 331.96" fill="#fff"/><polygon points="96.88 292.87 97.04 294.05 95.59 295.34 97.12 295.33 97.49 297.63 98.41 295.52 100.4 295.82 98.81 294.39 99.28 292.72 97.76 293.61 96.88 292.87" fill="#fff"/><polygon points="249.32 303.62 248.12 305.13 244.98 304.88 246.7 306.67 244.41 309.69 247.93 308.4 249.81 311.08 249.71 307.61 252.2 306.28 249.46 305.49 249.32 303.62" fill="#fff"/><polygon points="218.45 311.85 217.75 312.73 215.91 312.58 216.92 313.63 215.58 315.39 217.64 314.64 218.74 316.2 218.68 314.18 220.13 313.4 218.53 312.94 218.45 311.85" fill="#fff"/><polygon points="274.15 317.41 273.61 318.09 272.18 317.98 272.96 318.79 271.93 320.16 273.52 319.57 274.38 320.79 274.33 319.22 275.46 318.62 274.21 318.26 274.15 317.41" fill="#fff"/><polygon points="216.15 330.94 215.61 331.62 214.19 331.51 214.97 332.32 213.93 333.68 215.52 333.1 216.38 334.31 216.33 332.74 217.46 332.14 216.22 331.78 216.15 330.94" fill="#fff"/><polygon points="245.83 320.29 245.29 320.97 243.87 320.86 244.65 321.67 243.61 323.04 245.2 322.45 246.06 323.67 246.01 322.1 247.14 321.49 245.9 321.13 245.83 320.29" fill="#fff"/><polygon points="479.33 302.09 478.13 303.61 474.99 303.36 476.71 305.15 474.42 308.16 477.94 306.88 479.83 309.56 479.73 306.08 482.22 304.76 479.47 303.96 479.33 302.09" fill="#fff"/><polygon points="448.46 310.32 447.76 311.2 445.93 311.06 446.93 312.1 445.6 313.86 447.65 313.11 448.75 314.68 448.69 312.65 450.14 311.88 448.54 311.41 448.46 310.32" fill="#fff"/><polygon points="504.16 315.88 503.62 316.57 502.2 316.45 502.98 317.27 501.94 318.63 503.53 318.05 504.39 319.26 504.34 317.69 505.47 317.09 504.22 316.73 504.16 315.88" fill="#fff"/><polygon points="446.17 329.41 445.62 330.1 444.2 329.98 444.98 330.79 443.94 332.16 445.54 331.57 446.39 332.79 446.35 331.22 447.47 330.62 446.23 330.26 446.17 329.41" fill="#fff"/><polygon points="475.85 318.76 475.3 319.45 473.88 319.33 474.66 320.15 473.62 321.51 475.22 320.93 476.07 322.14 476.02 320.57 477.15 319.97 475.91 319.61 475.85 318.76" fill="#fff"/><polygon points="456.34 246.87 455.14 248.39 452 248.14 453.72 249.93 451.43 252.94 454.95 251.66 456.84 254.34 456.73 250.87 459.23 249.54 456.48 248.75 456.34 246.87" fill="#fff"/><polygon points="425.47 255.1 424.77 255.99 422.94 255.84 423.94 256.88 422.6 258.64 424.66 257.89 425.76 259.46 425.7 257.43 427.15 256.66 425.55 256.19 425.47 255.1" fill="#fff"/><polygon points="481.17 260.67 480.63 261.35 479.21 261.24 479.99 262.05 478.95 263.41 480.54 262.83 481.4 264.05 481.35 262.47 482.48 261.87 481.23 261.51 481.17 260.67" fill="#fff"/><polygon points="423.18 274.19 422.63 274.88 421.21 274.76 421.99 275.57 420.95 276.94 422.55 276.36 423.4 277.57 423.35 276 424.48 275.4 423.24 275.04 423.18 274.19" fill="#fff"/><polygon points="452.86 263.54 452.31 264.23 450.89 264.12 451.67 264.93 450.63 266.29 452.23 265.71 453.08 266.92 453.03 265.35 454.16 264.75 452.92 264.39 452.86 263.54" fill="#fff"/><polygon points="167.03 292.57 165.99 293.89 163.24 293.67 164.75 295.24 162.74 297.87 165.82 296.75 167.47 299.1 167.38 296.06 169.56 294.9 167.15 294.2 167.03 292.57" fill="#fff"/><polygon points="140.06 299.76 139.44 300.53 137.84 300.4 138.72 301.32 137.55 302.86 139.34 302.2 140.31 303.57 140.25 301.8 141.53 301.12 140.12 300.71 140.06 299.76" fill="#fff"/><polygon points="188.74 304.62 188.26 305.22 187.02 305.12 187.7 305.83 186.79 307.02 188.19 306.51 188.93 307.58 188.89 306.2 189.88 305.68 188.79 305.36 188.74 304.62" fill="#fff"/><polygon points="138.05 316.44 137.57 317.04 136.33 316.94 137.01 317.65 136.11 318.84 137.5 318.33 138.25 319.4 138.21 318.02 139.19 317.5 138.1 317.18 138.05 316.44" fill="#fff"/><polygon points="163.99 307.14 163.51 307.74 162.27 307.64 162.95 308.35 162.05 309.54 163.44 309.03 164.18 310.09 164.14 308.72 165.13 308.19 164.04 307.88 163.99 307.14" fill="#fff"/><polygon points="371.84 206.12 370.17 206.32 368.37 204.24 368.34 206.41 365.06 206.88 368.04 208.24 367.56 211.06 369.63 208.84 372 209.55 370.78 207.37 371.84 206.12" fill="#fff"/><polygon points="347.6 192.27 346.62 192.39 345.57 191.17 345.55 192.44 343.64 192.71 345.38 193.51 345.1 195.16 346.31 193.86 347.69 194.27 346.97 193 347.6 192.27" fill="#fff"/><polygon points="378.81 229.95 378.05 230.04 377.23 229.09 377.22 230.08 375.74 230.29 377.09 230.91 376.87 232.19 377.81 231.18 378.88 231.5 378.32 230.51 378.81 229.95" fill="#fff"/><polygon points="334.44 202.73 333.69 202.82 332.87 201.88 332.86 202.86 331.38 203.07 332.72 203.69 332.51 204.97 333.44 203.96 334.51 204.28 333.96 203.29 334.44 202.73" fill="#fff"/><polygon points="359.43 214.34 358.68 214.43 357.86 213.49 357.85 214.47 356.37 214.68 357.71 215.3 357.5 216.58 358.44 215.57 359.5 215.89 358.95 214.91 359.43 214.34" fill="#fff"/><polygon points="257.14 107.36 255.71 108.26 253.19 107.13 254.09 109.11 251.32 110.92 254.59 110.89 255.36 113.65 256.3 110.76 258.74 110.4 256.7 108.94 257.14 107.36" fill="#fff"/><polygon points="229.31 105.11 228.47 105.63 227 104.97 227.53 106.13 225.91 107.18 227.82 107.17 228.27 108.78 228.82 107.09 230.24 106.88 229.06 106.03 229.31 105.11" fill="#fff"/><polygon points="273.55 125.98 272.91 126.39 271.77 125.88 272.17 126.78 270.92 127.59 272.4 127.58 272.75 128.83 273.17 127.52 274.28 127.36 273.36 126.7 273.55 125.98" fill="#fff"/><polygon points="221.84 120.15 221.19 120.56 220.05 120.05 220.45 120.95 219.2 121.77 220.68 121.75 221.03 123 221.45 121.69 222.56 121.53 221.64 120.87 221.84 120.15" fill="#fff"/><polygon points="249.39 120.07 248.74 120.47 247.61 119.96 248.01 120.86 246.76 121.68 248.24 121.67 248.59 122.92 249.01 121.61 250.11 121.44 249.19 120.78 249.39 120.07" fill="#fff"/><path d="M156.71,113.51c-1.6,1.71-3,3.65-5,4.92-5,3.26-11.7,1.15-17.59,2.25-3,.56-5.84,2-8.69,3.21-10,4.26-20.83,6-31.55,7.71a64.08,64.08,0,0,0,44.49,10.53l-1.85,6.41a42.5,42.5,0,0,0,39,.87c-.17,8.9,12.05,15.11,19.14,9.72,1.31-1,2.49-2.31,4.09-2.71,1.92-.48,3.86.48,5.7,1.21,9.46,3.72,20.09,1.53,30-.7,5.05-1.14,10.36-2.42,14.1-6s5-10.26,1.26-13.81c7.12-1.76,7.52-12.93,2-17.78s-13.6-5-20.93-4.57c-3.12-8-6.85-16.68-14.53-20.51-9.9-4.93-17.17,5.81-25.57,8.12C178.35,105.83,166.77,102.76,156.71,113.51Z" transform="translate(-4.81 -63.39)" fill="url(#linear-gradient-7)"/><path d="M153.77,136.34a23,23,0,0,1-3.9,3.86c-4,2.56-9.2.91-13.82,1.77a33.78,33.78,0,0,0-6.83,2.52c-7.85,3.35-16.37,4.72-24.79,6.07a50.37,50.37,0,0,0,34.95,8.27l-1.45,5a33.4,33.4,0,0,0,30.66.69c-.14,7,9.47,11.87,15,7.63,1-.78,2-1.81,3.21-2.13,1.51-.37,3,.38,4.48.95,7.43,2.93,15.78,1.21,23.57-.55,4-.89,8.14-1.89,11.08-4.7s3.95-8.07,1-10.85c5.59-1.39,5.91-10.16,1.58-14s-10.69-3.92-16.44-3.59c-2.46-6.28-5.39-13.11-11.43-16.12-7.77-3.87-13.48,4.57-20.08,6.38C170.77,130.31,161.68,127.9,153.77,136.34Z" transform="translate(-4.81 -63.39)" fill="url(#linear-gradient-8)"/><path d="M402.61,247.54c1.42,1.87,2.62,3.94,4.44,5.41,4.66,3.75,11.52,2.35,17.26,4,3,.88,5.61,2.59,8.32,4.09,9.49,5.26,20.1,8.11,30.59,10.92a64.08,64.08,0,0,1-45.34,5.89l1.18,6.57a42.5,42.5,0,0,1-38.9-3.14c-.75,8.87-13.55,13.78-20,7.69-1.2-1.13-2.24-2.55-3.79-3.11-1.86-.68-3.89.08-5.8.61-9.78,2.73-20.13-.54-29.76-3.78-4.91-1.65-10.06-3.47-13.41-7.41s-3.94-10.72.17-13.86c-6.9-2.49-6.15-13.63-.18-17.89s14-3.56,21.29-2.4c3.93-7.63,8.53-15.89,16.57-18.9,10.35-3.89,16.48,7.54,24.59,10.7C381.87,237.68,393.7,235.82,402.61,247.54Z" transform="translate(-4.81 -63.39)" fill="url(#linear-gradient-9)"/><path d="M494.41,325.54c.51,2.82,1,5.63,1.52,8.44a54.66,54.66,0,0,1-50.06-4c-.95,11.42-17.43,17.75-25.77,9.91-1.55-1.45-2.89-3.29-4.88-4-2.4-.87-5,.11-7.47.79-12.59,3.52-25.91-.69-38.29-4.86-6.32-2.13-12.95-4.47-17.26-9.54s-5.08-13.8.22-17.84c-8.88-3.2-7.92-17.54-.23-23s18.07-4.58,27.39-3.08c5.06-9.82,11-20.45,21.32-24.33,13.32-5,21.21,9.7,31.65,13.78,15.53,6.06,30.75,3.66,42.22,18.75,1.82,2.39,3.36,5.06,5.71,6.95,6,4.83,14.82,3,22.21,5.2.56.17,1.12.36,1.67.57a174.83,174.83,0,0,1,10.14,28.61A81.44,81.44,0,0,1,494.41,325.54Z" transform="translate(-4.81 -63.39)" fill="url(#linear-gradient-10)"/><path d="M71.47,309.14c-1.73,1.57-3.3,3.38-5.36,4.49-5.27,2.83-11.75.19-17.71.8-3.08.31-6,1.5-8.93,2.48-10.3,3.42-21.25,4.27-32.07,5.1a64,64,0,0,0,43.47,14.14l-2.36,6.24a42.5,42.5,0,0,0,38.81,4.08c-.91,8.86,10.77,16,18.27,11.26,1.39-.89,2.67-2.1,4.3-2.37,2-.32,3.81.8,5.59,1.67,9.11,4.5,19.89,3.19,30,1.77,5.12-.72,10.53-1.55,14.55-4.81s5.84-9.81,2.38-13.65c7.24-1.17,8.56-12.27,3.48-17.55s-13.16-6.09-20.49-6.28c-2.45-8.23-5.46-17.19-12.8-21.64-9.45-5.73-17.59,4.38-26.15,6C93.67,303.26,82.39,299.25,71.47,309.14Z" transform="translate(-4.81 -63.39)" fill="url(#linear-gradient-11)"/><path d="M66.66,331.65a23.07,23.07,0,0,1-4.2,3.53c-4.14,2.22-9.24.15-13.92.62a34.07,34.07,0,0,0-7,1.95c-8.09,2.69-16.69,3.36-25.2,4a50.3,50.3,0,0,0,34.16,11.11l-1.86,4.9A33.39,33.39,0,0,0,79.12,361c-.72,7,8.46,12.61,14.35,8.84,1.1-.69,2.1-1.64,3.38-1.85,1.54-.25,3,.62,4.39,1.31,7.16,3.53,15.63,2.5,23.53,1.39,4-.56,8.27-1.22,11.43-3.78s4.6-7.71,1.88-10.73c5.69-.92,6.72-9.63,2.73-13.79s-10.33-4.78-16.1-4.93c-1.92-6.46-4.29-13.51-10.06-17-7.42-4.5-13.81,3.44-20.54,4.71C84.11,327,75.24,323.88,66.66,331.65Z" transform="translate(-4.81 -63.39)" fill="url(#linear-gradient-12)"/><path d="M309.23,343.78a66.29,66.29,0,0,1-6.19,6.56h0l-1.3,1.26-.83.82c-.6.59-1.17,1.18-1.75,1.78,0,0,0,0,0,0-.32.33-.63.68-.94,1-1.21,1.36-2.52,2.77-4.27,3.25a1.29,1.29,0,0,0-.52.23q-5.17-5.46-10.54-10.71c-1.31-1.29-2.65-2.58-4-3.85-1.74-1.66-3.5-3.31-5.36-4.82-6.53-5.29-14.22-8.89-21.83-12.43L243.22,323c-1.74-.81-3.53-2-5.42-2.41,0,0,13.85-8.14,20.27-8.45s33.63,19.87,36.07,21.4C295.45,334.35,302.71,339.31,309.23,343.78Z" transform="translate(-4.81 -63.39)" fill="url(#linear-gradient-13)"/></svg>